<?xml version="1.0" encoding="utf-8"?>
<!-- Generator: Adobe Illustrator 19.1.0, SVG Export Plug-In . SVG Version: 6.00 Build 0)  -->
<svg version="1.1" id="Layer_1" xmlns="http://www.w3.org/2000/svg" xmlns:xlink="http://www.w3.org/1999/xlink" x="0px" y="0px"
	 viewBox="0 0 64 64" style="enable-background:new 0 0 64 64;" xml:space="preserve">
<style type="text/css">
	.st0{fill-rule:evenodd;clip-rule:evenodd;fill:#AD1F2B;}
</style>
<g id="sun">
	<path class="st0" d="M32,15.7c-8.8,0-16,7.3-16,16.3c0,9,7.2,16.3,16,16.3S48,41,48,32C48,23,40.8,15.7,32,15.7z M62.5,26.4
		c-3.2-0.8-7.7-2.6-9.5-5.7c-1.8-3.2-1-8-0.1-11.2c0.5-1.8,0-2.3-1.7-1.4c-2.9,1.4-7.5,3.1-10.9,1.8c-3.4-1.3-5.9-5.5-7.2-8.5
		c-0.8-1.7-1.4-1.7-2.2,0c-1.3,3-3.8,7.2-7.2,8.5c-3.4,1.3-8-0.4-10.9-1.8c-1.7-0.8-2.2-0.4-1.7,1.4c0.9,3.2,1.7,8-0.1,11.2
		c-1.8,3.2-6.3,4.9-9.5,5.7c-1.8,0.5-1.9,1.1-0.4,2.2c2.7,1.9,6.4,5.1,7,8.7c0.6,3.6-1.7,7.9-3.6,10.6c-1.1,1.5-0.8,2.1,1.1,1.9
		c3.2-0.3,8.1-0.3,10.9,2.1c2.8,2.4,3.7,7.2,3.9,10.5c0.1,1.9,0.8,2.1,2.1,0.8c2.3-2.4,6-5.5,9.6-5.5s7.4,3.1,9.6,5.5
		c1.3,1.4,1.9,1.1,2.1-0.8c0.2-3.3,1.1-8.1,3.9-10.5c2.8-2.4,7.6-2.4,10.9-2.1c1.9,0.2,2.2-0.4,1.1-1.9c-1.9-2.7-4.3-7-3.6-10.6
		c0.6-3.6,4.3-6.8,7-8.7C64.5,27.5,64.4,26.8,62.5,26.4z M32,50.3c-9.9,0-17.9-8.2-17.9-18.3c0-10.1,8-18.3,17.9-18.3
		c9.9,0,17.9,8.2,17.9,18.3C49.9,42.1,41.9,50.3,32,50.3z"/>
</g>
</svg>
